<svg id="Слой_1" data-name="Слой 1" xmlns="http://www.w3.org/2000/svg" viewBox="0 0 706.92 360.9"><defs><style>.cls-1{fill:#fff;}</style></defs><path d="M2111.5,1653.13a115.55,115.55,0,0,0,28.23-3.48c28.49-7.19,46.53-23.33,56.22-32,8.89-8,21.07-18.85,27.7-37.49a79,79,0,0,0,4.46-29.57,12.92,12.92,0,0,0-20.9-9.67,115.83,115.83,0,0,1-45.69,22.33,99.11,99.11,0,0,1-23.25,2.58c-7.75,0-15.81-.65-27.22-1.63a255,255,0,0,1-38.19-6.08c-10.5-2.36-20.42-4.59-35.83-4.59-2,0-4,0-6.16.11-22.33.76-39.58,5-54.28,13.47a80.24,80.24,0,0,0-27.8,25,77.41,77.41,0,0,0-9.67,20.08,12.91,12.91,0,0,0,12.32,16.79,12.73,12.73,0,0,0,3.55-.5c3-.85,6-1.61,9.07-2.27a176,176,0,0,1,32.27-3.16,119.5,119.5,0,0,1,14.78.87c11.27,1.44,15.82,4,22.7,8a127.72,127.72,0,0,0,31,13.31C2075.71,1648.35,2092.11,1653.13,2111.5,1653.13Z" transform="translate(-1521.25 -1440.41)"/><path class="cls-1" d="M1959.49,1599.36a67.56,67.56,0,0,1,23.53-21c10.07-5.78,24.11-10.94,48.29-11.77,32.05-1.09,37.23,7,78.64,10.53,21.81,1.87,36.21,3,54.48-1.24a129.43,129.43,0,0,0,50.77-24.76,66.31,66.31,0,0,1-3.71,24.76c-5.42,15.23-15.13,24.13-24.15,32.2s-25.36,22.69-50.77,29.1c-28.52,7.19-52.65.16-68.11-4.34-30.79-9-29.92-18.39-55.72-21.67-25.09-3.18-51.39,2.48-51.39,2.48-4.12.89-7.52,1.79-9.91,2.48A64,64,0,0,1,1959.49,1599.36Z" transform="translate(-1521.25 -1440.41)"/><path d="M2023.6,1583.08a256.58,256.58,0,0,1,34.56,7.43c11.31,3.16,22.51,7.08,33.36,11a84.85,84.85,0,0,0,15.93,4.38,75.87,75.87,0,0,0,16.46.6c11.15-.76,22.26-3.9,33.41-7.88a75.72,75.72,0,0,1-15.13,9.5,72.28,72.28,0,0,1-17.29,5.74,66.35,66.35,0,0,1-18.53.93,60.88,60.88,0,0,1-9.28-1.66c-3-.79-5.88-1.74-8.7-2.71-11.17-4-21.83-8.43-32.65-12.88S2034.2,1588.39,2023.6,1583.08Z" transform="translate(-1521.25 -1440.41)"/><path d="M2081.17,1699.49c27.84,0,48.52-12.14,55.32-16.12a116.8,116.8,0,0,0,26.88-21.76,12.92,12.92,0,0,0-9.51-21.65,12.13,12.13,0,0,0-2.16.19,156.94,156.94,0,0,1-25.94,2.27,119.9,119.9,0,0,1-35.26-5.1c-14.75-4.54-33.74-13.75-44-18.7-7.39-3.59-13.22-6.63-17.9-9.08-12.27-6.41-19.67-10.28-30.53-10.28l-1.45,0c-17.53.55-34.41,10.64-50.19,30a12.92,12.92,0,0,0,9.69,21.07,78.71,78.71,0,0,1,29.1,6.13c7.16,3.07,11.06,6.09,16.45,10.28,2.82,2.19,6,4.67,10,7.41,11,7.59,34,23.37,63.79,25.16C2077.38,1699.44,2079.29,1699.49,2081.17,1699.49Z" transform="translate(-1521.25 -1440.41)"/><path class="cls-1" d="M2153.86,1652.88a104.08,104.08,0,0,1-23.91,19.35c-7.21,4.23-27.48,15.78-53.67,14.2s-46.57-15.58-57.24-22.91c-11.41-7.84-15.85-13.43-28.7-18.92a91.68,91.68,0,0,0-33.84-7.17c17-20.83,31.24-25,40.57-25.24,11.55-.36,17.16,5.11,43.85,18,10.91,5.29,30.08,14.59,45.78,19.42C2101.33,1654.16,2123.46,1658,2153.86,1652.88Z" transform="translate(-1521.25 -1440.41)"/><path d="M2034.8,1731.41a120.91,120.91,0,0,0,67.07-21.41,12.91,12.91,0,0,0-6.72-23.49c-22.56-1.17-42.45-6.58-59.12-16.08-13.41-7.63-29.94-20.75-38.82-27.8-6.45-5.12-11.47-9.35-15.5-12.76-10.94-9.22-17.53-14.79-29-17a48.57,48.57,0,0,0-9.11-.86c-14.62,0-30.23,6.47-46.4,19.21a12.91,12.91,0,0,0,4.88,22.67,78.74,78.74,0,0,1,27.06,12.32c6.33,4.55,9.47,8.35,13.82,13.61,2.28,2.75,4.85,5.86,8.16,9.41,9.12,9.81,28.11,30.21,56.78,38.43a97.39,97.39,0,0,0,26.89,3.72Z" transform="translate(-1521.25 -1440.41)"/><path d="M2008.68,1625c6.85,3.21,13.2,6.72,19.59,10.08s12.66,6.73,19,10,12.75,6.42,19.22,9.58,13,6.3,19.65,10a80.87,80.87,0,0,1-22.25-3,110.13,110.13,0,0,1-39.74-20.33A80.91,80.91,0,0,1,2008.68,1625Z" transform="translate(-1521.25 -1440.41)"/><path class="cls-1" d="M2094.48,1699.41a103.83,103.83,0,0,1-27.54,13.68c-8,2.56-30.25,9.43-55.47,2.19s-42.07-25.34-50.89-34.82c-9.43-10.13-12.55-16.55-23.9-24.71a91.77,91.77,0,0,0-31.47-14.36c21.09-16.63,35.93-17.55,45.1-15.81,11.35,2.17,15.64,8.72,38.87,27.16,9.49,7.54,26.19,20.79,40.45,28.91C2042.93,1689.23,2063.7,1697.81,2094.48,1699.41Z" transform="translate(-1521.25 -1440.41)"/><path d="M1978.83,1665.15a125.59,125.59,0,0,1,15.28,6.63c4.83,2.43,9.54,5,14.18,7.59s9.24,5.34,13.81,8.23a123.7,123.7,0,0,1,13.55,9.69,57.35,57.35,0,0,1-16.68-3,83.74,83.74,0,0,1-29-16.42A57.88,57.88,0,0,1,1978.83,1665.15Z" transform="translate(-1521.25 -1440.41)"/><path d="M1637.92,1653.13a115.57,115.57,0,0,1-28.24-3.48c-28.49-7.19-46.53-23.33-56.22-32-8.89-8-21.06-18.85-27.7-37.49a78.75,78.75,0,0,1-4.45-29.57,12.91,12.91,0,0,1,20.89-9.67,115.89,115.89,0,0,0,45.69,22.33,99.26,99.26,0,0,0,23.26,2.58c7.74,0,15.8-.65,27.21-1.63a254.52,254.52,0,0,0,38.19-6.08c10.5-2.36,20.42-4.59,35.84-4.59,2,0,4,0,6.15.11,22.34.76,39.59,5,54.28,13.47a80.07,80.07,0,0,1,27.8,25,77.09,77.09,0,0,1,9.67,20.08A12.91,12.91,0,0,1,1798,1629a12.67,12.67,0,0,1-3.54-.5c-3-.85-6-1.61-9.08-2.27a175.86,175.86,0,0,0-32.26-3.16,119.66,119.66,0,0,0-14.79.87c-11.27,1.44-15.81,4-22.69,8a127.84,127.84,0,0,1-31,13.31C1673.71,1648.35,1657.3,1653.13,1637.92,1653.13Z" transform="translate(-1521.25 -1440.41)"/><path class="cls-1" d="M1789.92,1599.36a67.55,67.55,0,0,0-23.52-21c-10.07-5.78-24.12-10.94-48.3-11.77-32-1.09-37.23,7-78.63,10.53-21.82,1.87-36.22,3-54.49-1.24a129.58,129.58,0,0,1-50.77-24.76,66.52,66.52,0,0,0,3.71,24.76c5.43,15.23,15.14,24.13,24.15,32.2s25.36,22.69,50.77,29.1c28.52,7.19,52.66.16,68.11-4.34,30.79-9,29.93-18.39,55.73-21.67,25.08-3.18,51.39,2.48,51.39,2.48,4.11.89,7.51,1.79,9.9,2.48A64,64,0,0,0,1789.92,1599.36Z" transform="translate(-1521.25 -1440.41)"/><path d="M1725.81,1583.08c-10.6,5.31-21.36,9.91-32.13,14.42s-21.49,8.86-32.66,12.88c-2.82,1-5.69,1.92-8.69,2.71a61.23,61.23,0,0,1-9.29,1.66,66.37,66.37,0,0,1-18.53-.93,72.05,72.05,0,0,1-17.28-5.74,75.51,75.51,0,0,1-15.14-9.5c11.15,4,22.27,7.12,33.41,7.88a75.94,75.94,0,0,0,16.47-.6,85.06,85.06,0,0,0,15.93-4.38c10.85-3.89,22-7.81,33.35-11A256.91,256.91,0,0,1,1725.81,1583.08Z" transform="translate(-1521.25 -1440.41)"/><path d="M1668.24,1699.49c-27.84,0-48.52-12.14-55.31-16.12a116.86,116.86,0,0,1-26.89-21.76,12.92,12.92,0,0,1,9.51-21.65,12.13,12.13,0,0,1,2.16.19,157,157,0,0,0,25.94,2.27,120,120,0,0,0,35.27-5.1c14.75-4.54,33.74-13.75,43.94-18.7,7.4-3.59,13.22-6.63,17.9-9.08,12.27-6.41,19.68-10.28,30.53-10.28l1.45,0c17.53.55,34.42,10.64,50.19,30a12.92,12.92,0,0,1-9.69,21.07,78.61,78.61,0,0,0-29.09,6.13c-7.17,3.07-11.07,6.09-16.46,10.28-2.81,2.19-6,4.67-10,7.41-11,7.59-34,23.37-63.78,25.16C1672,1699.44,1670.12,1699.49,1668.24,1699.49Z" transform="translate(-1521.25 -1440.41)"/><path class="cls-1" d="M1595.56,1652.88a103.77,103.77,0,0,0,23.9,19.35c7.21,4.23,27.48,15.78,53.67,14.2s46.57-15.58,57.25-22.91c11.41-7.84,15.84-13.43,28.7-18.92a91.64,91.64,0,0,1,33.84-7.17c-17-20.83-31.25-25-40.58-25.24-11.55-.36-17.16,5.11-43.85,18-10.9,5.29-30.08,14.59-45.77,19.42C1648.08,1654.16,1626,1658,1595.56,1652.88Z" transform="translate(-1521.25 -1440.41)"/><path d="M1714.62,1731.41a121,121,0,0,1-67.08-21.41,12.92,12.92,0,0,1,6.72-23.49c22.56-1.17,42.45-6.58,59.13-16.08,13.4-7.63,29.93-20.75,38.82-27.8,6.44-5.12,11.46-9.35,15.5-12.76,10.93-9.22,17.53-14.79,29-17a48.65,48.65,0,0,1,9.11-.86c14.63,0,30.24,6.47,46.4,19.21a12.91,12.91,0,0,1-4.87,22.67,78.66,78.66,0,0,0-27.06,12.32c-6.33,4.55-9.48,8.35-13.83,13.61-2.27,2.75-4.85,5.86-8.15,9.41-9.13,9.81-28.11,30.21-56.78,38.43a97.44,97.44,0,0,1-26.89,3.72Z" transform="translate(-1521.25 -1440.41)"/><path d="M1740.74,1625a81.23,81.23,0,0,1-15.5,16.24,109.91,109.91,0,0,1-39.74,20.33,80.86,80.86,0,0,1-22.24,3c6.61-3.68,13.17-6.78,19.64-10s12.86-6.34,19.22-9.58,12.67-6.57,19-10S1733.88,1628.19,1740.74,1625Z" transform="translate(-1521.25 -1440.41)"/><path class="cls-1" d="M1654.93,1699.41a103.83,103.83,0,0,0,27.54,13.68c8,2.56,30.26,9.43,55.47,2.19s42.07-25.34,50.89-34.82c9.44-10.13,12.55-16.55,23.9-24.71a91.85,91.85,0,0,1,31.47-14.36c-21.09-16.63-35.92-17.55-45.09-15.81-11.36,2.17-15.64,8.72-38.87,27.16-9.5,7.54-26.19,20.79-40.46,28.91C1706.48,1689.23,1685.72,1697.81,1654.93,1699.41Z" transform="translate(-1521.25 -1440.41)"/><path d="M1770.58,1665.15a57.88,57.88,0,0,1-11.14,12.76,83.5,83.5,0,0,1-29,16.42,57.35,57.35,0,0,1-16.68,3,124.66,124.66,0,0,1,13.55-9.69c4.57-2.89,9.16-5.61,13.81-8.23s9.35-5.16,14.18-7.59A125.59,125.59,0,0,1,1770.58,1665.15Z" transform="translate(-1521.25 -1440.41)"/><polygon points="133.23 0 144.19 10.6 159.13 7.58 152.44 21.28 159.93 34.56 144.83 32.42 134.52 43.65 131.88 28.63 118.02 22.29 131.49 15.15 133.23 0"/><polygon points="564.07 0 553.11 10.6 538.16 7.58 544.86 21.28 537.37 34.56 552.47 32.42 562.78 43.65 565.42 28.63 579.28 22.29 565.82 15.15 564.07 0"/><path class="cls-1" d="M2020.9,1794.65a34,34,0,0,1-19.83-6.46,128.74,128.74,0,0,1-16.32-14.09c-8-8.17-15.07-17.59-21.92-26.7-6.14-8.17-11.91-15.85-16.46-20a16,16,0,0,0-4.8-3.14,14.08,14.08,0,0,0-2.89-.82h-128a14.17,14.17,0,0,0-2.88.82,15.75,15.75,0,0,0-4.81,3.15c-4.54,4.14-10.31,11.82-16.42,19.94-6.87,9.14-13.95,18.57-21.95,26.76a129.26,129.26,0,0,1-16.32,14.08,33.92,33.92,0,0,1-19.84,6.47,33.27,33.27,0,0,1-10.28-1.62,59.94,59.94,0,0,1-18.75-10c-17.76-14.12-22.41-34.4-24.47-50.49-4.37-34,11.46-99.36,42.35-174.74a54,54,0,0,1,12.57-19,57.32,57.32,0,0,1,12.71-9.22c9.34-5.22,18.15-10.15,31.86-14,7.47-2.08,15.19-4.23,25.09-4.23,1.64,0,3.33.07,5,.19a73.41,73.41,0,0,1,16.37,3.07h107.43a73.52,73.52,0,0,1,16.37-3.07c1.71-.12,3.4-.19,5-.19,9.9,0,17.61,2.15,25.08,4.22,13.73,3.82,22.54,8.75,31.86,14a57,57,0,0,1,12.72,9.21,54.27,54.27,0,0,1,12.61,19.05c30.85,75.28,46.68,140.61,42.32,174.65-2.07,16.09-6.71,36.37-24.48,50.49a59.94,59.94,0,0,1-18.75,10A33.27,33.27,0,0,1,2020.9,1794.65Z" transform="translate(-1521.25 -1440.41)"/><path d="M1949.82,1518.11c9,0,15.94,1.94,23.3,4,13,3.61,21.42,8.34,30.39,13.36a49.93,49.93,0,0,1,11.31,8.17,47.53,47.53,0,0,1,11.08,16.71c30.46,74.36,46.13,138.42,41.9,171.38-1.9,14.84-6.12,33.49-22,46.11a53,53,0,0,1-16.67,8.87,26.37,26.37,0,0,1-8.22,1.31,27.29,27.29,0,0,1-15.92-5.2,122.78,122.78,0,0,1-15.47-13.36c-7.69-7.87-14.65-17.13-21.38-26.08-6.31-8.39-12.26-16.31-17.27-20.88a22.49,22.49,0,0,0-6.8-4.41,21.13,21.13,0,0,0-4.86-1.3h-129a21.18,21.18,0,0,0-4.85,1.3,22.43,22.43,0,0,0-6.81,4.41c-5,4.57-11,12.49-17.27,20.88-6.73,9-13.69,18.21-21.38,26.08a122.08,122.08,0,0,1-15.47,13.36,27.25,27.25,0,0,1-15.92,5.2,26.37,26.37,0,0,1-8.22-1.31,52.92,52.92,0,0,1-16.66-8.87c-15.89-12.63-20.12-31.28-22-46.11-4.23-33,11.44-97,41.91-171.38a47.51,47.51,0,0,1,11.07-16.71,50.15,50.15,0,0,1,11.31-8.17c9-5,17.44-9.75,30.38-13.36,7.37-2,14.32-4,23.31-4,1.49,0,3,.06,4.55.17a67.2,67.2,0,0,1,15.83,3.08h109.48a67.22,67.22,0,0,1,15.82-3.08c1.53-.11,3.06-.17,4.55-.17Zm0-13.32c-1.79,0-3.64.07-5.5.2a80.25,80.25,0,0,0-16.87,3.06H1822a80.37,80.37,0,0,0-16.87-3.06c-1.87-.13-3.72-.2-5.51-.2-10.8,0-19,2.27-26.87,4.47-14.49,4-24.06,9.38-33.32,14.56a63.68,63.68,0,0,0-14.12,10.27,60.93,60.93,0,0,0-14.12,21.28c-31.74,77.49-47.33,142.38-42.76,178,2,16,7.07,39.06,26.94,54.85a66.22,66.22,0,0,0,20.84,11.11,39.69,39.69,0,0,0,12.33,2,40.7,40.7,0,0,0,23.76-7.74,135.89,135.89,0,0,0,17.16-14.82c8.3-8.49,15.52-18.1,22.5-27.39,5.66-7.53,11.52-15.32,15.6-19a9.32,9.32,0,0,1,2.81-1.88,7.29,7.29,0,0,1,1.06-.34H1938a8.73,8.73,0,0,1,1.06.33,9.53,9.53,0,0,1,2.81,1.89c4.09,3.74,9.95,11.52,15.61,19.06,7,9.29,14.21,18.9,22.49,27.38a135.18,135.18,0,0,0,17.17,14.82,40.7,40.7,0,0,0,23.75,7.74,39.74,39.74,0,0,0,12.33-2,66.22,66.22,0,0,0,20.84-11.11c19.87-15.79,24.89-38.86,26.94-54.85,4.57-35.65-11-100.54-42.76-178a60.57,60.57,0,0,0-14.12-21.28,63.36,63.36,0,0,0-14.12-10.27c-9.26-5.17-18.83-10.53-33.32-14.56-7.9-2.2-16.06-4.47-26.87-4.47Z" transform="translate(-1521.25 -1440.41)"/><path d="M2013.53,1565.29a34.43,34.43,0,0,0-8-12.14,37.27,37.27,0,0,0-8.51-6.08c-8.71-4.87-16-9-27.45-12.14-7.88-2.2-14.4-4-23.33-3.37a54.5,54.5,0,0,0-14.57,3.12H1817.75a54.41,54.41,0,0,0-14.56-3.12c-8.94-.64-15.46,1.17-23.34,3.37-11.4,3.17-18.74,7.27-27.45,12.14a37.22,37.22,0,0,0-8.5,6.08,34.62,34.62,0,0,0-8,12.14c-30.75,75-44.76,135.83-41.06,164.72,1.83,14.24,5.6,28.26,17.09,37.38a39.72,39.72,0,0,0,12.5,6.64,13.6,13.6,0,0,0,12.18-2,108.45,108.45,0,0,0,13.79-11.89c14.48-14.83,27.59-36.91,39.19-47.5a35.79,35.79,0,0,1,10.81-6.92,34.19,34.19,0,0,1,9-2.27H1940a34.09,34.09,0,0,1,9,2.27,35.79,35.79,0,0,1,10.81,6.92c11.6,10.59,24.71,32.67,39.2,47.5a108.24,108.24,0,0,0,13.78,11.89,13.6,13.6,0,0,0,12.18,2,39.61,39.61,0,0,0,12.5-6.64c11.49-9.12,15.27-23.14,17.09-37.38C2058.3,1701.12,2044.29,1640.32,2013.53,1565.29Z" transform="translate(-1521.25 -1440.41)"/><path class="cls-1" d="M1801.72,1590.72a21.14,21.14,0,1,1-21.14-21.13A21.14,21.14,0,0,1,1801.72,1590.72Z" transform="translate(-1521.25 -1440.41)"/><path d="M1796.37,1590.72a15.79,15.79,0,1,1-15.79-15.79A15.79,15.79,0,0,1,1796.37,1590.72Z" transform="translate(-1521.25 -1440.41)"/><path class="cls-1" d="M1780.58,1617.77a27,27,0,1,1,27.05-27A27.08,27.08,0,0,1,1780.58,1617.77Zm0-52.15a25.11,25.11,0,1,0,25.11,25.1A25.13,25.13,0,0,0,1780.58,1565.62Z" transform="translate(-1521.25 -1440.41)"/><path class="cls-1" d="M1945.22,1645.6a21.14,21.14,0,1,1-21.14-21.14A21.14,21.14,0,0,1,1945.22,1645.6Z" transform="translate(-1521.25 -1440.41)"/><path d="M1939.88,1645.6a15.8,15.8,0,1,1-15.8-15.79A15.8,15.8,0,0,1,1939.88,1645.6Z" transform="translate(-1521.25 -1440.41)"/><path class="cls-1" d="M1924.08,1672.65a27.05,27.05,0,1,1,27.05-27.05A27.08,27.08,0,0,1,1924.08,1672.65Zm0-52.15a25.11,25.11,0,1,0,25.11,25.1A25.13,25.13,0,0,0,1924.08,1620.5Z" transform="translate(-1521.25 -1440.41)"/><path class="cls-1" d="M1944.49,1582.46a8.26,8.26,0,1,1-8.26,8.26,8.28,8.28,0,0,1,8.26-8.26Zm0-3.88a12.15,12.15,0,1,0,12.15,12.14,12.14,12.14,0,0,0-12.15-12.14Z" transform="translate(-1521.25 -1440.41)"/><path class="cls-1" d="M1902.22,1600a9.32,9.32,0,1,1,9.31-9.32A9.32,9.32,0,0,1,1902.22,1600Zm0-16.69a7.37,7.37,0,1,0,7.37,7.37A7.38,7.38,0,0,0,1902.22,1583.35Z" transform="translate(-1521.25 -1440.41)"/><path class="cls-1" d="M1847.8,1600a9.32,9.32,0,1,1,9.31-9.32A9.33,9.33,0,0,1,1847.8,1600Zm0-16.69a7.37,7.37,0,1,0,7.37,7.37A7.38,7.38,0,0,0,1847.8,1583.35Z" transform="translate(-1521.25 -1440.41)"/><path class="cls-1" d="M1995.39,1582.46a8.26,8.26,0,1,1-8.26,8.26,8.28,8.28,0,0,1,8.26-8.26Zm0-3.88a12.15,12.15,0,1,0,12.15,12.14,12.14,12.14,0,0,0-12.15-12.14Z" transform="translate(-1521.25 -1440.41)"/><path class="cls-1" d="M1971.09,1557.82a8.26,8.26,0,1,1-8.26,8.26,8.27,8.27,0,0,1,8.26-8.26Zm0-3.88a12.15,12.15,0,1,0,12.15,12.14,12.14,12.14,0,0,0-12.15-12.14Z" transform="translate(-1521.25 -1440.41)"/><path class="cls-1" d="M1971.09,1606.76a8.26,8.26,0,1,1-8.26,8.26,8.26,8.26,0,0,1,8.26-8.26Zm0-3.89a12.15,12.15,0,1,0,12.15,12.15,12.14,12.14,0,0,0-12.15-12.15Z" transform="translate(-1521.25 -1440.41)"/><path class="cls-1" d="M1830.55,1680.17h-8.1a6.48,6.48,0,0,1-6.48-6.48v-12.9h-12.9a6.48,6.48,0,0,1-6.48-6.47v-8.1a6.49,6.49,0,0,1,6.48-6.48H1816v-12.9a6.49,6.49,0,0,1,6.48-6.48h8.1a6.49,6.49,0,0,1,6.48,6.48v12.9h12.89a6.48,6.48,0,0,1,6.48,6.48v8.1a6.48,6.48,0,0,1-6.48,6.47H1837v12.9A6.48,6.48,0,0,1,1830.55,1680.17Zm-27.48-38.49a4.54,4.54,0,0,0-4.53,4.54v8.1a4.53,4.53,0,0,0,4.53,4.53h14.85v14.84a4.54,4.54,0,0,0,4.53,4.54h8.1a4.54,4.54,0,0,0,4.53-4.54v-14.84h14.84a4.53,4.53,0,0,0,4.54-4.53v-8.1a4.54,4.54,0,0,0-4.54-4.54h-14.84v-14.84a4.53,4.53,0,0,0-4.53-4.53h-8.1a4.53,4.53,0,0,0-4.53,4.53v14.84Z" transform="translate(-1521.25 -1440.41)"/><path class="cls-1" d="M1914.64,1559.39a18.26,18.26,0,0,1-6.32,2.76,26.29,26.29,0,0,1-6,.7h-55.08a26.42,26.42,0,0,1-6-.7,18.45,18.45,0,0,1-6.32-2.76L1813.24,1546q10.85,11,21.67,22.09a16.36,16.36,0,0,0,6.32,4.53,15.8,15.8,0,0,0,6,1.13h55.08a15.73,15.73,0,0,0,6-1.13,16.2,16.2,0,0,0,6.32-4.53q10.84-11,21.67-22.09Q1925.47,1552.7,1914.64,1559.39Z" transform="translate(-1521.25 -1440.41)"/><path class="cls-1" d="M1888.45,1554.44a13.36,13.36,0,1,1-13.36-13.36A13.36,13.36,0,0,1,1888.45,1554.44Z" transform="translate(-1521.25 -1440.41)"/><path d="M1875.09,1569.75a15.31,15.31,0,1,1,15.3-15.31A15.33,15.33,0,0,1,1875.09,1569.75Zm0-26.73a11.42,11.42,0,1,0,11.42,11.42A11.43,11.43,0,0,0,1875.09,1543Z" transform="translate(-1521.25 -1440.41)"/></svg>