<svg id="Слой_1" data-name="Слой 1" xmlns="http://www.w3.org/2000/svg" viewBox="0 0 1955.19 1191.57"><defs><style>.cls-1{fill:#44d4f4;}.cls-2{fill:#240448;}.cls-3{fill:#fc346c;}.cls-4{fill:#fccc6c;}.cls-5{fill:#fff;}.cls-6{fill:#dce5f7;}.cls-7{fill:#240444;}</style></defs><path class="cls-1" d="M419.49,1274.89c24.22,13.58,38.2,34.67,31.22,47.12s-32.27,11.53-56.49-2c-16.76-9.39-25.28-28.34-28.93-39.13a7.85,7.85,0,0,1,5.72-10.2C382.12,1268.12,402.73,1265.49,419.49,1274.89Z" transform="translate(-296.92 -221.82)"/><path class="cls-1" d="M517.38,1282.45c-13.67,13.86-30.53,19.4-37.66,12.37s-1.81-24,11.87-37.83c9.46-9.59,23.86-11.83,31.83-12.3a5.51,5.51,0,0,1,5.84,5.76C528.9,1258.43,526.85,1272.86,517.38,1282.45Z" transform="translate(-296.92 -221.82)"/><path class="cls-2" d="M460.51,1412.34a2.5,2.5,0,0,1-2.5-2.5c0-54.31-8.46-111.38-25.14-169.61a2.5,2.5,0,0,1,4.81-1.38c16.81,58.69,25.33,116.21,25.33,171A2.5,2.5,0,0,1,460.51,1412.34Z" transform="translate(-296.92 -221.82)"/><path class="cls-2" d="M429,1221.25a2.5,2.5,0,0,1-2.38-1.75c-20.37-63.81-43.51-105.62-43.74-106a2.5,2.5,0,0,1,4.37-2.44c.23.42,23.6,42.63,44.13,107a2.51,2.51,0,0,1-1.62,3.15A2.56,2.56,0,0,1,429,1221.25Z" transform="translate(-296.92 -221.82)"/><circle class="cls-3" cx="395.96" cy="1143.28" r="46.99" transform="matrix(0.1, -1, 1, 0.1, -1077.95, 1201.75)"/><path class="cls-1" d="M470.51,1412.34a2.49,2.49,0,0,1-2.49-2.45c0-1.45-2.47-146.9,34.27-251.48a2.5,2.5,0,1,1,4.72,1.66c-36.45,103.74-34,248.28-34,249.72a2.49,2.49,0,0,1-2.45,2.55Z" transform="translate(-296.92 -221.82)"/><polygon class="cls-4" points="247.9 947.39 214.67 914.16 169.28 926.32 157.12 971.71 190.35 1004.93 235.74 992.77 247.9 947.39"/><path class="cls-5" d="M396,1149.4c-25.18,0-50.67-5.91-50.67-17.21a2.5,2.5,0,0,1,5,0c0,5.1,17.37,12.21,45.67,12.21s45.68-7.11,45.68-12.21a2.5,2.5,0,0,1,5,0C446.64,1143.49,421.14,1149.4,396,1149.4Z" transform="translate(-296.92 -221.82)"/><path class="cls-5" d="M396,1149.4c-25.18,0-50.67-5.91-50.67-17.21a2.5,2.5,0,0,1,5,0c0,5.1,17.37,12.21,45.67,12.21s45.68-7.11,45.68-12.21a2.5,2.5,0,0,1,5,0C446.64,1143.49,421.14,1149.4,396,1149.4Z" transform="translate(-296.92 -221.82)"/><path class="cls-5" d="M434.87,1161.93a44.5,44.5,0,0,1-9.7-1.27c-9.5-2.2-21-7-32.35-13.56s-21.27-14.09-27.93-21.22c-7.41-7.93-10-14.51-7.36-19a2.5,2.5,0,1,1,4.33,2.5c-1,1.69.19,6.14,6.69,13.1,6.33,6.78,15.83,14,26.77,20.3s21.94,10.93,31,13c9.28,2.14,13.71.93,14.69-.77a2.5,2.5,0,1,1,4.33,2.5C443.63,1160.44,440.07,1161.93,434.87,1161.93Z" transform="translate(-296.92 -221.82)"/><path class="cls-5" d="M434.87,1161.93a44.5,44.5,0,0,1-9.7-1.27c-9.5-2.2-21-7-32.35-13.56s-21.27-14.09-27.93-21.22c-7.41-7.93-10-14.51-7.36-19a2.5,2.5,0,1,1,4.33,2.5c-1,1.69.19,6.14,6.69,13.1,6.33,6.78,15.83,14,26.77,20.3s21.94,10.93,31,13c9.28,2.14,13.71.93,14.69-.77a2.5,2.5,0,1,1,4.33,2.5C443.63,1160.44,440.07,1161.93,434.87,1161.93Z" transform="translate(-296.92 -221.82)"/><path class="cls-5" d="M454,1196a2.5,2.5,0,0,1-.64-4.91l90.77-24.32a2.5,2.5,0,1,1,1.29,4.83L454.69,1196A2.41,2.41,0,0,1,454,1196Z" transform="translate(-296.92 -221.82)"/><path class="cls-5" d="M499.43,1183.87a2.49,2.49,0,0,1-1.77-.73l-33.22-33.23a2.5,2.5,0,1,1,3.53-3.53l33.23,33.22a2.52,2.52,0,0,1,0,3.54A2.49,2.49,0,0,1,499.43,1183.87Z" transform="translate(-296.92 -221.82)"/><path class="cls-6" d="M1156.27,548.27H440.91a97.86,97.86,0,0,1,.8-17.09h0a154.37,154.37,0,0,1,18.54-54.65c15.12-26.65,37.79-46.35,63.25-40.26,7.79,1.85,15.85,6.14,24,13.38,12.26,10.85,22.13,24.18,34.27,35.18s27.67,19.81,44,18.62C646.25,502,661,483.66,664,464.39c7.37-46.37,6.9-138,64.88-150.65,1.09-.24,2.18-.46,3.25-.63,49.53-8.48,83.7,39.91,96.88,83.27,1.51,4.92,2.73,9.79,3.68,14.49,2.7,11.34,3.73,23.7,4.17,36.22.09.8.18,1.58.27,2.36.39,3.36.84,6.69,1.4,10,1.38,8.08,3.43,15.78,6.86,22.58,1.31,2.62,3.16,5.32,6,6,7.91,1.91,14.54-7.25,19.08-14.56,1.27-2.05,2.39-3.95,3.31-5.43,14.37-22.8,54-38,71.92-10.66,12.51,19.12,2.11,56.37,28.15,65.89,29.86,10.92,37.38-28.35,40-48.49,3.26-24.74,2.72-50.09,10-74.18,3.09-7.21,8.24-15.45,16.48-16.48,8.24,0,15.45,6.18,18.55,13.4,9.14,22.19,11.65,46.13,15,69.69,2.72,19.11,6.43,61.27,31.84,63.64,13.5,1.25,25.7-22.84,38.21-12.17C1151.91,525.42,1151.49,539.58,1156.27,548.27Z" transform="translate(-296.92 -221.82)"/><path class="cls-6" d="M920.6,989.09,887.39,978a2.28,2.28,0,0,1-1.5-3.16l1.05-2a38.27,38.27,0,0,0,4.2-13c.12-.83.2-1.67.26-2.56a11.06,11.06,0,0,0-7.66-11.17,5.1,5.1,0,0,0-6.63,3.51c-.16.62-.3,1.25-.43,1.88-.23,1.13-.43,2.27-.67,3.4A23.31,23.31,0,0,1,874.1,961a18.13,18.13,0,0,1-2.62,3.82,19.54,19.54,0,0,1-4.7,3.87,19.19,19.19,0,0,1-3,1.43,17,17,0,0,1-6.08,1,16.42,16.42,0,0,1-5-.85l-.23-.08.44-1.31.09-.32a3.56,3.56,0,0,0-2.47-4L830.82,958a3.57,3.57,0,0,0-4.16,1.36,2.67,2.67,0,0,0-.35.72l-15,45a3.55,3.55,0,0,0-.16.89v.26a3.56,3.56,0,0,0,.26,1.15,3.74,3.74,0,0,0,2.27,2.07l19.67,6.54a3.71,3.71,0,0,0,2.42,0,3.3,3.3,0,0,0,2.09-2.08l.44-1.31,3.55,1.18a26.74,26.74,0,0,1,3.58,1.49l1.26.69c.37.22.73.45,1.09.68a22,22,0,0,1,3.68,3c.32.32.63.66.93,1l.25.31c.17.2.35.4.54.59l.08.08a9,9,0,0,0,3.45,2.09l33.15,11c4.35,1.45,9.1-.52,10.38-4.43a7,7,0,0,0-.1-4.54l.83.27c4.32,1.44,9-.44,10.31-4.3a7.1,7.1,0,0,0-.7-6,7.67,7.67,0,0,0,8.34-4.86,7.35,7.35,0,0,0-1.71-7.25c4,.76,7.82-1.2,9-4.73C927.56,994.94,924.94,990.53,920.6,989.09Z" transform="translate(-296.92 -221.82)"/><path class="cls-6" d="M572.26,854.51a7.35,7.35,0,0,0-5.47-5c3.69-1.59,5.8-5.38,4.82-9-1.1-4-5.74-6.15-10.14-4.92L527.76,845a2.29,2.29,0,0,1-3-1.79l-.23-2.21a38.55,38.55,0,0,0-3.77-13.1c-.38-.75-.77-1.5-1.22-2.27a11.05,11.05,0,0,0-12.6-5,5.11,5.11,0,0,0-3.54,6.62c.22.6.46,1.2.71,1.8.44,1.06.9,2.12,1.34,3.19a24.16,24.16,0,0,1,1.75,6,18.49,18.49,0,0,1,0,4.64,19.47,19.47,0,0,1-1.73,5.83,18.57,18.57,0,0,1-1.72,2.88,17,17,0,0,1-4.46,4.28,16.55,16.55,0,0,1-4.63,2.09l-.23.07-.37-1.34a2.83,2.83,0,0,0-.11-.31,3.54,3.54,0,0,0-4.3-2l-20,5.59a3.57,3.57,0,0,0-2.69,3.45,3.07,3.07,0,0,0,.11.79l12.78,45.67a3.65,3.65,0,0,0,.36.83l.15.21a3.28,3.28,0,0,0,.85.81,3.74,3.74,0,0,0,3.05.45l20-5.59a3.7,3.7,0,0,0,2-1.35,3.31,3.31,0,0,0,.58-2.89l-.38-1.34,3.61-1a26.22,26.22,0,0,1,3.79-.76c.48-.06,1-.1,1.44-.13s.86,0,1.28,0a22.76,22.76,0,0,1,4.75.44c.44.1.89.2,1.33.32l.38.11a6.66,6.66,0,0,0,.77.19l.12,0a8.8,8.8,0,0,0,4-.2l33.64-9.41c4.41-1.23,7.25-5.52,6.11-9.48a7,7,0,0,0-2.61-3.71l.84-.23c4.38-1.23,7.18-5.39,6.14-9.35a7.19,7.19,0,0,0-4-4.61A7.65,7.65,0,0,0,572.26,854.51Z" transform="translate(-296.92 -221.82)"/><path class="cls-6" d="M783.66,795a7,7,0,0,0-1.31-4.35l.87,0c4.55.22,8.52-2.84,8.77-6.92a7.13,7.13,0,0,0-2.3-5.63,7.66,7.66,0,0,0,6.73-6.93,7.34,7.34,0,0,0-3.6-6.51c4-.34,7.21-3.27,7.4-7,.21-4.1-3.5-7.64-8.06-7.87l-35-1.69a2.29,2.29,0,0,1-2.29-2.65l.48-2.17a38.29,38.29,0,0,0,.56-13.62c-.12-.83-.26-1.66-.44-2.53a11.07,11.07,0,0,0-10.39-8.7,5.11,5.11,0,0,0-5.44,5.17c0,.63.05,1.28.1,1.92.08,1.15.19,2.31.26,3.46a23.56,23.56,0,0,1-.23,6.23,18.09,18.09,0,0,1-1.5,4.39,19.44,19.44,0,0,1-3.49,5,17.76,17.76,0,0,1-2.54,2.19,17,17,0,0,1-5.57,2.65,16.5,16.5,0,0,1-5.06.52h-.24l.07-1.38v-.34A3.55,3.55,0,0,0,718,745l-20.7-1a3.59,3.59,0,0,0-3.65,2.42,3.54,3.54,0,0,0-.14.79l-2.29,47.37a3,3,0,0,0,.08.9,2.33,2.33,0,0,0,.07.25,3.46,3.46,0,0,0,.55,1,3.73,3.73,0,0,0,2.75,1.38l20.7,1a3.76,3.76,0,0,0,2.33-.66,3.28,3.28,0,0,0,1.46-2.56l.07-1.38,3.74.18a25.82,25.82,0,0,1,3.84.47c.47.1.94.21,1.4.33s.83.23,1.24.36a22.65,22.65,0,0,1,4.36,1.92c.39.23.78.47,1.16.72l.33.23c.22.15.44.29.67.42l.11.06a9,9,0,0,0,3.88,1.08L774.86,802C779.44,802.26,783.49,799.09,783.66,795Z" transform="translate(-296.92 -221.82)"/><path class="cls-6" d="M1287.26,780.3c-14.46-42.62-43.91-78.36-88.13-96.73-50.61-21-107.35-20.66-159-14.73C971,676.77,912.22,718.2,907,791.54,904.2,830,916,869.72,935.45,904.35c25.45,45.37,78.2,81.2,58.57,136.71-1.79,5.06-15.29,47-15.14,47h320.06c-4.32-37.47-8.64-79.54-7.36-116.69,1.8-52,11.63-103.91,3.93-156.6A194.61,194.61,0,0,0,1287.26,780.3Z" transform="translate(-296.92 -221.82)"/><path class="cls-2" d="M1046.16,997.83a2.49,2.49,0,0,1-2.38-1.73c-6.08-18.75-19.11-35.5-32.91-53.24-9.28-11.92-18.87-24.25-26.18-37.29-15-26.68-32.11-68.16-28.81-114.21a132.38,132.38,0,0,1,8.66-39.05,2.5,2.5,0,1,1,4.65,1.83,127.4,127.4,0,0,0-8.32,37.58c-3.22,44.81,13.55,85.32,28.18,111.4,7.13,12.71,16.6,24.89,25.77,36.67,13.45,17.3,27.37,35.18,33.72,54.77a2.5,2.5,0,0,1-1.61,3.15A2.63,2.63,0,0,1,1046.16,997.83Z" transform="translate(-296.92 -221.82)"/><path class="cls-2" d="M1343,973.89h-.09a2.49,2.49,0,0,1-2.41-2.58c.57-16.38,2-33,3.28-49.06,2.91-35,5.91-71.21.67-107.09a193.15,193.15,0,0,0-8.14-34.06c-15.08-44.44-45.88-78.26-86.73-95.22-42-17.46-92.17-22.09-157.75-14.56-42.44,4.88-78.62,22.2-101.89,48.78a2.5,2.5,0,1,1-3.76-3.3c24.09-27.51,61.41-45.43,105.07-50.44,66.47-7.64,117.39-2.9,160.25,14.9,42.2,17.52,74,52.41,89.55,98.24a198.17,198.17,0,0,1,8.35,34.93c5.32,36.45,2.29,73-.64,108.24-1.33,16-2.7,32.55-3.26,48.81A2.5,2.5,0,0,1,1343,973.89Z" transform="translate(-296.92 -221.82)"/><rect class="cls-3" x="1556.5" y="967.33" width="114.02" height="62.46" transform="translate(-444.5 1483.23) rotate(-53.61)"/><path class="cls-3" d="M1655.85,1105a20.16,20.16,0,0,1-14-13.59l-8.73-28.64-35.87-23.31a20.2,20.2,0,0,1,22-33.87l42,27.32a20.19,20.19,0,0,1,8.31,11l10.88,35.68a20.2,20.2,0,0,1-24.66,25.37Z" transform="translate(-296.92 -221.82)"/><path class="cls-3" d="M1695.25,1102a20.19,20.19,0,0,1-14-13.78l-13.1-44.55-29-15.52a20.2,20.2,0,0,1,19.05-35.63l36.49,19.52a20.12,20.12,0,0,1,9.85,12.11l15.5,52.67a20.2,20.2,0,0,1-24.72,25.18Z" transform="translate(-296.92 -221.82)"/><path class="cls-3" d="M1725.63,1063.67a20.18,20.18,0,0,1-13-11l-14-30.29-32.89-16.48a20.2,20.2,0,0,1,18.11-36.12l39.2,19.65a20.25,20.25,0,0,1,9.28,9.58l17,36.7a20.2,20.2,0,0,1-23.68,28Z" transform="translate(-296.92 -221.82)"/><path class="cls-3" d="M1652.51,985.4a20.2,20.2,0,0,1,8.77-39.38l55.18,9.39a20.2,20.2,0,0,1-6.78,39.82l-55.17-9.38C1653.83,985.73,1653.16,985.58,1652.51,985.4Z" transform="translate(-296.92 -221.82)"/><polygon class="cls-2" points="1034.1 782.74 923.73 551.11 1026.67 502.06 1111.13 679.32 1328.72 713.13 1311.21 825.8 1034.1 782.74"/><path class="cls-2" d="M1597,1063.52a20.1,20.1,0,0,1-14-24.72l28.18-102.38a20.11,20.11,0,0,1,38.78,10.68l-28.18,102.37A20.11,20.11,0,0,1,1597,1063.52Z" transform="translate(-296.92 -221.82)"/><path class="cls-1" d="M1091.29,1091.89l255.28,1.62,35.14-203c18.43-54.49,3.83-115.3-38.7-154a146.74,146.74,0,0,0-77.94-36.78h0A147.42,147.42,0,0,0,1098,824.34Z" transform="translate(-296.92 -221.82)"/><path class="cls-3" d="M1322.9,722.51l4.65-69,2.14-44.42,1-21.09a35.07,35.07,0,0,0-33.33-36.73,34.2,34.2,0,0,0-4.53.07,35,35,0,0,0-32.2,33.26L1257,659.13l-1.39,29.06C1254.71,707.53,1322,741.87,1322.9,722.51Z" transform="translate(-296.92 -221.82)"/><polygon class="cls-5" points="946.67 445 1040.64 497.62 1027.71 513.43 943.87 501.23 946.67 445"/><path class="cls-3" d="M1344.41,647.38h0a43.28,43.28,0,0,0,28.17-54.33l-10.85-34.2a57,57,0,0,0-71.59-37.11h0A57,57,0,0,0,1253,593.33l2.53,8A70.78,70.78,0,0,0,1344.41,647.38Z" transform="translate(-296.92 -221.82)"/><path class="cls-3" d="M1357.06,566.93l31.39,30.93a6,6,0,0,1-3.38,10.28l-24.61,3.52Z" transform="translate(-296.92 -221.82)"/><path class="cls-2" d="M1305,556s-.1,10.79-2,15.77c-2.5,6.47-7.87,10.59-14.6,12.09-8.47,1.9-18.43.66-27-.2-19.48-2-43-17.45-30.71-39.88,4.17-7.62,13.06-12.56,21.67-11.46-5.8.17-11.77-2.23-15.31-6.82s-4.26-11.4-1.19-16.32c3.51-5.63,11-7.72,17.55-6.75s12.46,4.4,18.18,7.76c2.66-8.14,8.77-15.28,16.75-18.4s17.72-1.82,24.12,3.88a11.36,11.36,0,0,1,4.08,6.92c.3,2.72-1.25,5.75-3.9,6.44a17.8,17.8,0,0,1,34.16-7.68,14.34,14.34,0,0,1,1.14,6.5c-.78,1.68-2.61,4.48-2.79,6,8.74,2.54,27.8-5.76,18.62-17.39,10.58-.26,21.59,8.57,25,18,2.84,7.87.8,16.14-4.32,22.57-11.26,14.15-30.68,14.79-47.21,15.67-9.49.51-28.4,2.72-28.4,2.72l-3.57.56Z" transform="translate(-296.92 -221.82)"/><path class="cls-5" d="M1335.5,916.67h0A10,10,0,0,1,1327,912l-13.42-21.47h-29.26l-7.37,18.21a12.77,12.77,0,0,1-11.83,8h0a12.76,12.76,0,0,1-12.77-12.76V879.84a25,25,0,0,1,25-25h43.21a25,25,0,0,1,25,25v26.8A10,10,0,0,1,1335.5,916.67Z" transform="translate(-296.92 -221.82)"/><path class="cls-5" d="M1298.94,957.58a71.82,71.82,0,1,1,71.82-71.82A71.9,71.9,0,0,1,1298.94,957.58Zm0-138.34a66.52,66.52,0,1,0,66.52,66.52A66.59,66.59,0,0,0,1298.94,819.24Z" transform="translate(-296.92 -221.82)"/><path class="cls-2" d="M1375.74,609.78a25,25,0,0,0-11.63-5.58,31.45,31.45,0,0,0-20.55,2.72c-7,3.5-13.13,8.47-21.28,5.14a52.14,52.14,0,0,1-8.61-4.94,111.86,111.86,0,0,1-18.49-15.42l0-.05-35.64,12.25c-3.52,1.84,9.45,20.11,10.73,22,12.59,18.81,33.69,32.75,56.72,34.42,13.09,1,27.26-1.65,38.56-8.52C1380.73,642.56,1387.9,620.77,1375.74,609.78Z" transform="translate(-296.92 -221.82)"/><circle class="cls-3" cx="1275.48" cy="589.33" r="26.9" transform="translate(61.18 1431.73) rotate(-74.04)"/><path class="cls-3" d="M1442.37,1073.94a56.8,56.8,0,0,1-14.53-5.3l-32.71-17.25a57,57,0,1,1,53.19-100.86L1481,967.78a57,57,0,0,1-38.66,106.16Z" transform="translate(-296.92 -221.82)"/><path class="cls-3" d="M1466,1120.41a20.2,20.2,0,0,1-15.9-19.8l.07-21.87-31.29-22.89a20.2,20.2,0,1,1,23.85-32.6l39.6,29a20.22,20.22,0,0,1,8.27,16.37l-.1,32.16a20.21,20.21,0,0,1-24.5,19.67Z" transform="translate(-296.92 -221.82)"/><path class="cls-3" d="M1502.52,1150.85a20.2,20.2,0,0,1-15.89-20.13l1-53.5-29.28-25.33a20.2,20.2,0,0,1,26.43-30.55l36.45,31.53a20.23,20.23,0,0,1,7,15.67l-1.23,63a20.2,20.2,0,0,1-24.5,19.34Z" transform="translate(-296.92 -221.82)"/><path class="cls-3" d="M1542.6,1104a20.19,20.19,0,0,1-14.39-12l-10.44-25.16-48.08-56.37a20.2,20.2,0,0,1,30.74-26.22l50.14,58.8a20.09,20.09,0,0,1,3.29,5.36l11.66,28.1A20.2,20.2,0,0,1,1542.6,1104Z" transform="translate(-296.92 -221.82)"/><rect class="cls-4" x="1199.22" y="827.71" width="114.02" height="331.34" transform="matrix(0.05, -1, 1, 0.05, -90.52, 1981.01)"/><path class="cls-2" d="M1405.84,1074.18a20.11,20.11,0,0,1-15.39-23.92L1413.73,943A20.11,20.11,0,0,1,1453,951.5l-23.29,107.29A20.11,20.11,0,0,1,1405.84,1074.18Z" transform="translate(-296.92 -221.82)"/><path class="cls-4" d="M1091.28,1044.09a57.05,57.05,0,0,1-53.22-77.43l85.88-224.13a57,57,0,1,1,106.47,40.79l-85.88,224.14A57,57,0,0,1,1091.28,1044.09Z" transform="translate(-296.92 -221.82)"/><rect class="cls-2" x="1136.47" y="831.97" width="39.21" height="34.22"/><rect class="cls-2" x="1276.52" y="831.97" width="39.21" height="34.22"/><rect class="cls-2" x="1348.56" y="831.97" width="39.21" height="34.22"/><rect class="cls-2" x="1202.02" y="831.97" width="39.21" height="34.22"/><rect class="cls-2" x="1416.57" y="831.97" width="39.21" height="34.22"/><circle class="cls-4" cx="1258.89" cy="594.19" r="20.64" transform="translate(-428.48 305.16) rotate(-22.5)"/><path class="cls-5" d="M1330.74,646.15a6,6,0,0,1-.36-12,124.14,124.14,0,0,0,15.08-1.91,6,6,0,1,1,2.22,11.86,136.22,136.22,0,0,1-16.57,2.09Z" transform="translate(-296.92 -221.82)"/><path class="cls-5" d="M1324.24,642.82c-27.58,0-45-10.9-55-20.44-11.67-11.18-15.82-22.74-16-23.22a2.5,2.5,0,1,1,4.72-1.66h0a61.93,61.93,0,0,0,14.9,21.43c14.57,13.85,34,20.14,57.69,18.69a2.5,2.5,0,1,1,.31,5C1328.62,642.75,1326.39,642.82,1324.24,642.82Z" transform="translate(-296.92 -221.82)"/><path class="cls-7" d="M1979.86,968.8l-316.71,0a2.5,2.5,0,0,1,0-5h0l316.71,0a12.57,12.57,0,0,0,12.56-12.56c0-.09,0-.18,0-.28L2028,635.11a11.92,11.92,0,0,0-11.92-11.78l-464.58-.07h0a11.92,11.92,0,0,0-11.91,11.92c0,.09,0,.18,0,.28l-21.85,194a2.5,2.5,0,0,1-5-.56L1534.59,635a16.9,16.9,0,0,1,16.91-16.77h0l464.58.07A16.92,16.92,0,0,1,2033,635.25a2.44,2.44,0,0,1,0,.27l-35.57,315.87A17.58,17.58,0,0,1,1979.86,968.8Z" transform="translate(-296.92 -221.82)"/><path class="cls-4" d="M2046,645.85l-464.58-.07A14.42,14.42,0,0,0,1567,660.2l-35.58,316a15.06,15.06,0,0,0,15.06,15.06l463.3.07a15.06,15.06,0,0,0,15.06-15.05l35.58-316A14.43,14.43,0,0,0,2046,645.85Z" transform="translate(-296.92 -221.82)"/><path class="cls-4" d="M1784.06,1082.22l98.82,0c5,0,9.11-2.07,9.1-4.63l-49.63-150.21a38.15,38.15,0,0,0-36.23-26.18h0A38.14,38.14,0,0,0,1768,941.26l6.9,136.33C1774.94,1080.15,1779,1082.22,1784.06,1082.22Z" transform="translate(-296.92 -221.82)"/><path class="cls-2" d="M1863.87,995a2.49,2.49,0,0,1-2.37-1.71L1840,928.14a35.6,35.6,0,0,0-33.85-24.46h0a35.66,35.66,0,0,0-35.59,37.45l2.56,50.44a2.5,2.5,0,1,1-5,.26l-2.56-50.45a40.65,40.65,0,0,1,40.58-42.7h0a40.59,40.59,0,0,1,38.6,27.89l21.52,65.14a2.51,2.51,0,0,1-1.59,3.16A2.71,2.71,0,0,1,1863.87,995Z" transform="translate(-296.92 -221.82)"/><path class="cls-4" d="M1926.88,1088H1737.42a40.43,40.43,0,0,1,40.43-40.43h108.6a40.44,40.44,0,0,1,40.43,40.43Z" transform="translate(-296.92 -221.82)"/><rect class="cls-1" x="541.7" y="866.26" width="1254.13" height="322.81"/><polygon class="cls-1" points="1357.68 277.72 1364.36 290.33 1376.57 297.23 1364.36 304.13 1357.68 316.74 1351 304.13 1338.79 297.23 1351 290.33 1357.68 277.72"/><polygon class="cls-4" points="126.18 757.23 132.86 769.84 145.07 776.74 132.86 783.64 126.18 796.25 119.5 783.64 107.29 776.74 119.5 769.84 126.18 757.23"/><polygon class="cls-4" points="293 62.58 299.68 75.19 311.89 82.09 299.68 88.99 293 101.6 286.32 88.99 274.11 82.09 286.32 75.19 293 62.58"/><polygon class="cls-1" points="1852.5 738.78 1859.17 751.39 1871.39 758.29 1859.17 765.18 1852.5 777.8 1845.82 765.18 1833.61 758.29 1845.82 751.39 1852.5 738.78"/><polygon class="cls-1" points="549.03 621.65 555.71 634.26 567.92 641.16 555.71 648.06 549.03 660.67 542.35 648.06 530.14 641.16 542.35 634.26 549.03 621.65"/><path class="cls-2" d="M470.23,745a2.5,2.5,0,0,1-.71-4.9c6-1.78,19.8-6.4,29.67-13.62a43.16,43.16,0,0,1-13.87-10.08c-4.18-4.56-5.86-9-5-13.16.77-3.7,3.62-7,8-9.14a20.06,20.06,0,0,1,17.58-.14,16.36,16.36,0,0,1,9,11.93c1.32,7.21-1.31,13.39-6,18.6a33.94,33.94,0,0,0,12.86.31c10-1.71,17.86-8,22-17.74a2.5,2.5,0,0,1,4.6,2c-4.85,11.35-14,18.7-25.78,20.71a39.38,39.38,0,0,1-17.94-1.18c-10.16,8.46-25.2,13.81-33.75,16.35A2.44,2.44,0,0,1,470.23,745Zm27.12-48a15.22,15.22,0,0,0-6.77,1.58c-1.4.7-4.72,2.65-5.36,5.69s1.7,6.49,3.78,8.76a38.28,38.28,0,0,0,14.51,9.86c4.73-4.55,7.59-9.93,6.46-16.09a11.44,11.44,0,0,0-6.28-8.35A14.21,14.21,0,0,0,497.35,697Z" transform="translate(-296.92 -221.82)"/><path class="cls-1" d="M782.61,760.7h-74a2.5,2.5,0,0,1-2.5-2.5V715.75c-1.28-.48-2.55-1-3.81-1.51l-28.88,30.41a2.48,2.48,0,0,1-1.77.78,2.36,2.36,0,0,1-1.8-.72l-53.13-52.44a2.5,2.5,0,0,1,0-3.5l27.58-29c-1.63-3.32-3.11-6.76-4.42-10.26H601a2.49,2.49,0,0,1-2.5-2.5V573a2.49,2.49,0,0,1,2.5-2.5h38.85c.7-1.9,1.46-3.77,2.25-5.6L614,538a2.5,2.5,0,0,1-.07-3.54l51.23-53.32a2.49,2.49,0,0,1,3.53-.07l28.08,27c3.11-1.49,6.3-2.85,9.54-4.06V465.13a2.49,2.49,0,0,1,2.5-2.5h73.94a2.5,2.5,0,0,1,2.5,2.5v38.92c2.41.9,4.8,1.89,7.13,2.95l27.48-27.57a2.49,2.49,0,0,1,1.77-.73,2.35,2.35,0,0,1,1.76.73l52.38,52.2a2.49,2.49,0,0,1,0,3.53l-27.42,27.52c1.15,2.49,2.21,5.05,3.19,7.66H890.5a2.5,2.5,0,0,1,2.5,2.5v75.38a2.5,2.5,0,0,1-2.5,2.5H851.1c-.79,2-1.66,4.1-2.58,6.11L876.85,685a2.5,2.5,0,0,1,0,3.5l-51.65,54a2.55,2.55,0,0,1-1.78.77,2.65,2.65,0,0,1-1.79-.73L792,713c-2.27,1-4.58,2-6.9,2.83V758.2A2.5,2.5,0,0,1,782.61,760.7Zm-71.45-5h69V714.07a2.49,2.49,0,0,1,1.66-2.36c3.29-1.16,6.56-2.5,9.71-4a2.49,2.49,0,0,1,2.82.49l29.1,28.95,48.19-50.34-27.84-27.69a2.5,2.5,0,0,1-.49-2.85c1.39-2.92,2.66-5.92,3.77-8.94a2.51,2.51,0,0,1,2.35-1.63H888V575.34H849.83a2.52,2.52,0,0,1-2.36-1.66,106,106,0,0,0-4.34-10.44,2.5,2.5,0,0,1,.48-2.85l26.9-27-48.83-48.67-26.95,27a2.51,2.51,0,0,1-2.84.5,105.41,105.41,0,0,0-9.94-4.11,2.52,2.52,0,0,1-1.66-2.36V467.63H711.35v38.11a2.49,2.49,0,0,1-1.67,2.35,110.53,110.53,0,0,0-12.23,5.2,2.5,2.5,0,0,1-2.85-.43l-27.53-26.45-47.76,49.72,27.48,26.4a2.49,2.49,0,0,1,.54,2.83c-1.23,2.72-2.38,5.58-3.41,8.5a2.52,2.52,0,0,1-2.36,1.66h-38.1v69h38.17a2.49,2.49,0,0,1,2.35,1.66A106.64,106.64,0,0,0,649.55,659a2.51,2.51,0,0,1-.41,2.86L622,690.44l49.57,48.92,28.32-29.82a2.5,2.5,0,0,1,2.81-.57c2.22,1,4.5,1.87,6.77,2.68a2.48,2.48,0,0,1,1.66,2.35Zm34.57-78.14a65.9,65.9,0,1,1,65.89-65.9A66,66,0,0,1,745.73,677.56Zm0-126.79a60.9,60.9,0,1,0,60.89,60.89A61,61,0,0,0,745.73,550.77Z" transform="translate(-296.92 -221.82)"/><path class="cls-1" d="M1024.47,508.22H969.93a2.5,2.5,0,0,1-2.5-2.5V474.87l-2-.79-21,22.1a2.52,2.52,0,0,1-1.77.78h0a2.52,2.52,0,0,1-1.76-.72L901.7,457.57a2.52,2.52,0,0,1-.06-3.51l20-21.08c-1.06-2.21-2-4.48-2.92-6.8H890.5a2.5,2.5,0,0,1-2.5-2.5V369.15a2.5,2.5,0,0,1,2.5-2.5h28.19c.43-1.12.87-2.23,1.34-3.32L899.69,343.8a2.52,2.52,0,0,1-.07-3.54l37.78-39.33a2.52,2.52,0,0,1,1.76-.76,2.47,2.47,0,0,1,1.78.69l20.37,19.58q3.08-1.45,6.26-2.66v-28.2a2.5,2.5,0,0,1,2.5-2.5h54.53a2.5,2.5,0,0,1,2.5,2.5v28.25c1.5.57,3,1.19,4.46,1.84l19.94-20a2.5,2.5,0,0,1,3.54,0l38.63,38.49a2.5,2.5,0,0,1,0,3.54l-19.9,20q1.08,2.38,2,4.85H1104a2.5,2.5,0,0,1,2.5,2.5V424.6a2.49,2.49,0,0,1-2.5,2.5h-28.61c-.49,1.25-1,2.49-1.57,3.72l20.58,20.46a2.51,2.51,0,0,1,0,3.5l-38.09,39.79a2.5,2.5,0,0,1-3.57,0l-21.57-21.45q-2.12.93-4.28,1.76v30.8A2.5,2.5,0,0,1,1024.47,508.22Zm-52-5H1022V473.17a2.5,2.5,0,0,1,1.66-2.36c2.41-.85,4.8-1.83,7.1-2.91a2.52,2.52,0,0,1,2.83.49l21,20.88,34.63-36.17-20.07-20a2.5,2.5,0,0,1-.5-2.85c1-2.14,2-4.34,2.77-6.54a2.5,2.5,0,0,1,2.34-1.64h27.83V371.51H1074a2.48,2.48,0,0,1-2.35-1.66,78,78,0,0,0-3.18-7.63,2.51,2.51,0,0,1,.48-2.85l19.38-19.44-35.09-35-19.41,19.48a2.5,2.5,0,0,1-2.84.49,75.56,75.56,0,0,0-7.27-3,2.52,2.52,0,0,1-1.66-2.36V292.08H972.57v27.44a2.5,2.5,0,0,1-1.67,2.36,80.73,80.73,0,0,0-8.94,3.8,2.49,2.49,0,0,1-2.85-.43L939.28,306.2,905,341.92l19.79,19a2.51,2.51,0,0,1,.55,2.83c-.91,2-1.75,4.08-2.5,6.21a2.5,2.5,0,0,1-2.36,1.67H893v49.53h27.49a2.52,2.52,0,0,1,2.36,1.66,77.08,77.08,0,0,0,4.07,9.45,2.49,2.49,0,0,1-.42,2.86L907,455.73l35.62,35.16L963,469.38a2.5,2.5,0,0,1,2.81-.57c1.62.71,3.29,1.36,5,2a2.5,2.5,0,0,1,1.66,2.35Zm24.84-56.32a49.26,49.26,0,1,1,49.25-49.25A49.31,49.31,0,0,1,997.27,446.9Zm0-93.51a44.26,44.26,0,1,0,44.25,44.26A44.31,44.31,0,0,0,997.27,353.39Z" transform="translate(-296.92 -221.82)"/><path class="cls-6" d="M1421.74,386h307.87c-2.07-25.78-18.94-69.76-22.08-74.82-1.27-2.05-2.39-4-3.31-5.43-14.37-22.81-54-38-71.93-10.66-12.5,19.11-2.1,56.36-28.14,65.88-29.86,10.92-37.38-28.35-40-48.49-3.26-24.74-2.72-50.09-10-74.17-3.09-7.21-8.24-15.46-16.48-16.49-8.24,0-15.45,6.19-18.55,13.41-9.14,22.18-11.66,46.12-15,69.68-2.72,19.11-6.43,61.27-31.84,63.64-13.5,1.25-25.7-22.84-38.21-12.16C1426.1,363.15,1426.52,377.31,1421.74,386Z" transform="translate(-296.92 -221.82)"/><path class="cls-2" d="M1334.72,344c-12.6,0-24.83-5.58-29.19-17.66a30.33,30.33,0,0,1-1.65-7.6A37.53,37.53,0,0,1,1289,307.93c-4.77-5.56-7.82-12.16-8.36-18.12a2.5,2.5,0,0,1,5-.46c.44,4.88,3.13,10.61,7.18,15.32a35,35,0,0,0,11,8.63,40.52,40.52,0,0,1,.73-5.68c1.11-5.6,3.25-9.38,6.54-11.56a11.39,11.39,0,0,1,17.46,11.75,14.07,14.07,0,0,1-4.48,7.46,17.84,17.84,0,0,1-13.54,5c-.47,0-1-.08-1.43-.14a25,25,0,0,0,1.15,4.58c5.35,14.82,24.22,16.3,35.91,12.62l1.18-.4a30.34,30.34,0,0,0,8.77-4.8,2.5,2.5,0,1,1,3.12,3.9,35.26,35.26,0,0,1-10.2,5.61l-1.37.46A43.39,43.39,0,0,1,1334.72,344Zm-26-29.06a15.89,15.89,0,0,0,2.06.26,13,13,0,0,0,9.87-3.63,9.44,9.44,0,0,0,3-4.78,6.39,6.39,0,0,0-9.79-6.59c-2.13,1.41-3.57,4.15-4.41,8.37A35.63,35.63,0,0,0,1308.74,315Z" transform="translate(-296.92 -221.82)"/><path class="cls-2" d="M1572.32,1413.39H401.1a2.5,2.5,0,0,1,0-5H1572.32a2.5,2.5,0,0,1,0,5Z" transform="translate(-296.92 -221.82)"/><path class="cls-2" d="M372.32,1413.39h-72.9a2.5,2.5,0,0,1,0-5h72.9a2.5,2.5,0,0,1,0,5Z" transform="translate(-296.92 -221.82)"/><path class="cls-2" d="M2249.62,1413.39h-52a2.5,2.5,0,0,1,0-5h52a2.5,2.5,0,0,1,0,5Z" transform="translate(-296.92 -221.82)"/><path class="cls-2" d="M2159.65,1413.39H1659a2.5,2.5,0,0,1,0-5h500.65a2.5,2.5,0,0,1,0,5Z" transform="translate(-296.92 -221.82)"/><path class="cls-2" d="M2041,1090.58H1117.32a2.5,2.5,0,1,1,0-5H2041a2.5,2.5,0,0,1,0,5Z" transform="translate(-296.92 -221.82)"/><path class="cls-5" d="M1967.69,1314.4H959.74a3.13,3.13,0,0,1,0-6.25h1008a3.13,3.13,0,0,1,0,6.25Z" transform="translate(-296.92 -221.82)"/><circle class="cls-3" cx="923.73" cy="1089.45" r="28.61"/><circle class="cls-5" cx="1453.99" cy="1204.36" r="56.43" transform="translate(-264.64 2224.83) rotate(-80.78)"/><circle class="cls-5" cx="1022.65" cy="982.53" r="37.85"/><circle class="cls-5" cx="1292.38" cy="982.53" r="37.85"/><rect class="cls-1" x="1132.73" y="963.03" width="14.33" height="39"/><rect class="cls-1" x="1164.73" y="963.03" width="14.33" height="39"/><path class="cls-2" d="M752,1313.52a2.5,2.5,0,0,1-1.2-.31L710.32,1291a2.5,2.5,0,1,1,2.41-4.38l40.46,22.22a2.5,2.5,0,0,1-1.21,4.69Z" transform="translate(-296.92 -221.82)"/><path class="cls-2" d="M690.32,1410.73l-.45,0a2.51,2.51,0,0,1-2-2.9l26.26-147.27a2.5,2.5,0,1,1,4.92.87l-26.26,147.27A2.49,2.49,0,0,1,690.32,1410.73Z" transform="translate(-296.92 -221.82)"/><path class="cls-2" d="M771.89,1410.45a2.5,2.5,0,0,1-2.45-2l-29.27-146.7a2.5,2.5,0,0,1,4.91-1l29.27,146.7a2.5,2.5,0,0,1-2,2.94A2.72,2.72,0,0,1,771.89,1410.45Z" transform="translate(-296.92 -221.82)"/><path class="cls-2" d="M579.65,1410.73a3.15,3.15,0,0,1-.44,0,2.52,2.52,0,0,1-2-2.9l33-185.26a2.5,2.5,0,0,1,4.92.88l-33,185.25A2.5,2.5,0,0,1,579.65,1410.73Z" transform="translate(-296.92 -221.82)"/><path class="cls-2" d="M660.74,1410.45a2.5,2.5,0,0,1-2.45-2L629,1261.74a2.5,2.5,0,1,1,4.9-1l29.27,146.7a2.5,2.5,0,0,1-2,2.94A2.81,2.81,0,0,1,660.74,1410.45Z" transform="translate(-296.92 -221.82)"/><path class="cls-1" d="M620.19,1266a85,85,0,0,0,45.5,13.18H800.3a12,12,0,1,0,0-24H632.11A12,12,0,0,0,620.19,1266Z" transform="translate(-296.92 -221.82)"/><path class="cls-1" d="M590.77,1234.6a85.32,85.32,0,0,0,74.92,44.6,83.86,83.86,0,0,0,59.38-24c28.17-27.59,23.49-70.29-2.81-107.17-36.49-51.18-80.62-81.33-134.45-67.71C526.65,1095.84,561.56,1180.87,590.77,1234.6Z" transform="translate(-296.92 -221.82)"/><path class="cls-2" d="M641.4,1313.52a2.47,2.47,0,0,1-1.2-.31L599.74,1291a2.5,2.5,0,1,1,2.4-4.38l40.46,22.22a2.5,2.5,0,0,1-1.2,4.69Z" transform="translate(-296.92 -221.82)"/><path class="cls-7" d="M749.82,1374.33l16.21,5.41,12.08-15.22,11.18,3.73,2.22,20,67.82,22.64,3.8-11.05.08-.22a23.69,23.69,0,0,0-5.13-23.62l-7.25-7.79L838.57,1355l-.34-27,0-1.65-23.88-6.58-3-.83-38.78-10.69-4.73,13.73-10.28,29.87-3.92,11.35Z" transform="translate(-296.92 -221.82)"/><path class="cls-7" d="M930,1369.69l15.56-7.06L944,1343.25l10.73-4.87L970,1351.52l65.1-29.55-4.73-10.68-.1-.22a23.68,23.68,0,0,0-19.83-13.82l-10.61-.77-17.94-1.31-18.59-19.52-1.14-1.2-22,11.42-2.77,1.44-35.69,18.56,5.88,13.27L920.39,1348l4.86,11Z" transform="translate(-296.92 -221.82)"/><path class="cls-4" d="M663.59,1070.16a3.64,3.64,0,0,1-3.64-3.64v-42.27a21.38,21.38,0,0,1,21.35-21.36,17,17,0,0,1,7.72,1.87,3.64,3.64,0,1,1-3.33,6.47,9.54,9.54,0,0,0-4.39-1.06,14.09,14.09,0,0,0-14.07,14.08v42.27A3.64,3.64,0,0,1,663.59,1070.16Z" transform="translate(-296.92 -221.82)"/><path class="cls-4" d="M707.63,1070.16a3.64,3.64,0,0,1-3.64-3.64v-63.63h21.35a16.87,16.87,0,0,1,7.71,1.87,3.64,3.64,0,1,1-3.33,6.47,9.47,9.47,0,0,0-4.38-1.06H711.26v56.35A3.64,3.64,0,0,1,707.63,1070.16Z" transform="translate(-296.92 -221.82)"/><path class="cls-3" d="M808.13,1163.2a25.22,25.22,0,0,1-23.61-16.39l-18.46-49.39a25.21,25.21,0,0,1,47.23-17.65l18.45,49.39a25.22,25.22,0,0,1-23.61,34Z" transform="translate(-296.92 -221.82)"/><rect class="cls-2" x="759.33" y="1060.15" width="50.41" height="29.37" transform="translate(-623.52 120.79) rotate(-20.49)"/><path class="cls-2" d="M762.11,1106.7a8.07,8.07,0,0,1-2.75-15.65l49.06-17.83a8.07,8.07,0,1,1,5.51,15.16l-49.06,17.83A8.08,8.08,0,0,1,762.11,1106.7Z" transform="translate(-296.92 -221.82)"/><path class="cls-2" d="M779.4,1086.29a25.21,25.21,0,0,1-23.62-16.39l-8-21.34A25.2,25.2,0,1,1,795,1030.92l8,21.34a25.21,25.21,0,0,1-23.6,34Z" transform="translate(-296.92 -221.82)"/><path class="cls-2" d="M643.76,1147.37H774.11l17.94-100.73a30.76,30.76,0,0,0-30.29-36.16H656.1a30.77,30.77,0,0,0-30.29,36.16Z" transform="translate(-296.92 -221.82)"/><polygon class="cls-4" points="337.65 987.43 480.01 940.31 487.77 866.73 441.08 837.61 395.2 837.61 336.25 866.73 337.65 987.43"/><path class="cls-3" d="M706.28,1024.87a15.49,15.49,0,0,0,17.35-13.41l1.42-11,.73-5.68,2.5-19.5,1.19-9.26a15.51,15.51,0,0,0-13.4-17.36,16.77,16.77,0,0,0-2-.12,15.51,15.51,0,0,0-14.36,9.7,16,16,0,0,0-1,3.83l-1.77,13.88-2.43,18.83-1.63,12.75A15.51,15.51,0,0,0,706.28,1024.87Z" transform="translate(-296.92 -221.82)"/><path class="cls-2" d="M701.87,976.22c2.92,13.46,9.47,23.16,23.18,24.22l.73-5.68,2.5-19.5,1.19-9.26a15.51,15.51,0,0,0-13.4-17.36,16.77,16.77,0,0,0-2-.12,15.51,15.51,0,0,0-14.36,9.7,16,16,0,0,0-1,3.83Z" transform="translate(-296.92 -221.82)"/><path class="cls-3" d="M735.76,991.57h0a19.14,19.14,0,0,0,13.6-23.39l-4.06-15.33a25.2,25.2,0,0,0-30.82-17.92h0a25.21,25.21,0,0,0-17.92,30.82l1,3.58A31.29,31.29,0,0,0,735.76,991.57Z" transform="translate(-296.92 -221.82)"/><path class="cls-3" d="M746,959.24l9.75,16.86a2.67,2.67,0,0,1-2.65,4l-10.9-1.39Z" transform="translate(-296.92 -221.82)"/><circle class="cls-4" cx="744.28" cy="932.11" r="15.68" transform="translate(-675.28 1113.34) rotate(-71.14)"/><path class="cls-4" d="M712.15,932.88a11.09,11.09,0,1,0,10.74-11.43A11.09,11.09,0,0,0,712.15,932.88Z" transform="translate(-296.92 -221.82)"/><path class="cls-4" d="M702.53,949.09l40.84-1.26a9.88,9.88,0,0,0,9.57-10.18h0a9.87,9.87,0,0,0-10.18-9.57l-40.85,1.26a9.88,9.88,0,0,0-9.56,10.19h0A9.86,9.86,0,0,0,702.53,949.09Z" transform="translate(-296.92 -221.82)"/><polygon class="cls-4" points="396.34 747.17 413.97 746.62 420.69 716.83 395.42 717.62 396.34 747.17"/><path class="cls-3" d="M690,966a11.9,11.9,0,1,0,11.52-12.25A11.9,11.9,0,0,0,690,966Z" transform="translate(-296.92 -221.82)"/><path class="cls-3" d="M614.81,1148.16a25.22,25.22,0,0,1-23.73-33.71l13.72-38.31a25.2,25.2,0,1,1,47.46,17l-13.72,38.32A25.21,25.21,0,0,1,614.81,1148.16Z" transform="translate(-296.92 -221.82)"/><rect class="cls-2" x="618.91" y="1045.64" width="29.37" height="50.41" transform="translate(-886.95 1074.63) rotate(-69.83)"/><path class="cls-2" d="M638.66,1082.27a25.22,25.22,0,0,1-23.66-33.9l7.85-21.38a25.21,25.21,0,1,1,47.32,17.38l-7.85,21.38A25.22,25.22,0,0,1,638.66,1082.27Z" transform="translate(-296.92 -221.82)"/><path class="cls-2" d="M652,1101.86a8,8,0,0,1-2.81-.51l-47.07-17.5a8.07,8.07,0,1,1,5.62-15.12l47.08,17.5a8.07,8.07,0,0,1-2.82,15.63Z" transform="translate(-296.92 -221.82)"/><circle class="cls-5" cx="742.27" cy="1097.41" r="19.84" transform="translate(-855.5 624.46) rotate(-45)"/><circle class="cls-5" cx="701.94" cy="1097.41" r="19.84" transform="translate(-463.64 -95.22) rotate(-9.22)"/><rect class="cls-2" x="706.93" y="1079.93" width="34.1" height="34.1" transform="translate(1714.67 1138.9) rotate(135)"/><path class="cls-4" d="M742.22,1070.16H707.63a3.64,3.64,0,1,1,0-7.28h27.31v-43.11a9.57,9.57,0,0,0-5.22-8.54,3.64,3.64,0,0,1,3.33-6.47,16.81,16.81,0,0,1,9.17,15Z" transform="translate(-296.92 -221.82)"/><path class="cls-4" d="M694.54,1070.16a3.64,3.64,0,0,1-3.64-3.64v-46.75a9.57,9.57,0,0,0-5.21-8.54,3.64,3.64,0,0,1,3.33-6.47,16.82,16.82,0,0,1,9.16,15v46.75A3.64,3.64,0,0,1,694.54,1070.16Z" transform="translate(-296.92 -221.82)"/><polygon class="cls-2" points="383.78 1033.96 439.37 1033.96 434.74 992.3 383.78 992.3 383.78 1033.96"/><path class="cls-7" d="M735.23,1255.74a40.76,40.76,0,0,1-15.88-78.31l120.25-50.79a40.76,40.76,0,1,1,31.72,75.09l-120.25,50.79A40.53,40.53,0,0,1,735.23,1255.74Z" transform="translate(-296.92 -221.82)"/><path class="cls-4" d="M634.57,1209.26a43.56,43.56,0,0,0,.73,6.23c3.38,18.16,17.58,34.16,35.56,38.9a42,42,0,0,0,10.38,1.4c20.16.14,38-14,55.29-23.37l53.69-29c10.32-5.58,20.58-12.19,31.33-16.92a38.63,38.63,0,0,0-31.16-70.7q-45.75,16.34-91.52,32.64c-13.61,4.85-28.92,8.33-41.15,16.49a49.65,49.65,0,0,0-5.34,4C641,1178.91,633.86,1194,634.57,1209.26Z" transform="translate(-296.92 -221.82)"/><path class="cls-4" d="M781.58,1175.62l115.19,135.43L958,1265.66l-.62-.76L840.43,1125.59a38.62,38.62,0,1,0-58.85,50Z" transform="translate(-296.92 -221.82)"/><path class="cls-4" d="M766.89,1301.27l72.1,20.8,57.7-149.91a38.63,38.63,0,1,0-72.3-27.22Z" transform="translate(-296.92 -221.82)"/><path class="cls-5" d="M907.75,1201.22a3.24,3.24,0,0,1-2.38-1L838,1127.81l-.09-.11a35.53,35.53,0,0,0-33.1-11.93l-104.93,35.74a3.25,3.25,0,1,1-2.1-6.16L803,1109.53a2.6,2.6,0,0,1,.46-.12,42,42,0,0,1,39.41,14l67.28,72.32a3.27,3.27,0,0,1-2.39,5.48Z" transform="translate(-296.92 -221.82)"/><path class="cls-5" d="M864.42,1279.73a3.27,3.27,0,0,1-2.48-1.14l-69.77-81.9a3.26,3.26,0,1,1,5-4.22l69.77,81.89a3.25,3.25,0,0,1-2.48,5.37Z" transform="translate(-296.92 -221.82)"/><path class="cls-5" d="M901.74,1317.24a9.87,9.87,0,0,1-5.89-17.8l53.39-39.59A9.87,9.87,0,1,1,961,1275.7l-53.39,39.6A9.79,9.79,0,0,1,901.74,1317.24Z" transform="translate(-296.92 -221.82)"/><path class="cls-5" d="M835.16,1332a10,10,0,0,1-2.8-.41l-64.05-18.91a9.87,9.87,0,0,1,5.59-18.94L838,1312.6a9.88,9.88,0,0,1-2.79,19.35Z" transform="translate(-296.92 -221.82)"/><path class="cls-3" d="M742.26,1201.77a25,25,0,0,1-9.76-2L605,1146.18a25.2,25.2,0,1,1,19.55-46.46L752,1153.33a25.21,25.21,0,0,1-9.78,48.44Z" transform="translate(-296.92 -221.82)"/><path class="cls-3" d="M777.48,1205c-.31,0-.63,0-1,0l-39.09-4.14a8.93,8.93,0,1,1,1.88-17.76l39.09,4.14a8.93,8.93,0,0,1-.93,17.81Z" transform="translate(-296.92 -221.82)"/><path class="cls-3" d="M747.28,1190a8.93,8.93,0,0,1-.74-17.83l42.85-3.59a8.93,8.93,0,1,1,1.5,17.8L748,1190Z" transform="translate(-296.92 -221.82)"/><path class="cls-3" d="M746,1174.82a8.93,8.93,0,0,1-1.39-17.75l34.74-5.51a8.93,8.93,0,0,1,2.8,17.64l-34.74,5.51A8.54,8.54,0,0,1,746,1174.82Z" transform="translate(-296.92 -221.82)"/><path class="cls-3" d="M734.09,1172a8.93,8.93,0,0,1-5.22-16.18l18.46-13.28a8.93,8.93,0,1,1,10.43,14.5l-18.46,13.28A8.86,8.86,0,0,1,734.09,1172Z" transform="translate(-296.92 -221.82)"/><path class="cls-2" d="M941.57,1273.87a3.18,3.18,0,0,1-1.73-.52A3.12,3.12,0,0,1,939,1269l34.6-51.94-65-51.53a3.12,3.12,0,0,1,3.87-4.89L979.71,1214a3.13,3.13,0,0,1,.66,4.17l-36.2,54.33A3.12,3.12,0,0,1,941.57,1273.87Z" transform="translate(-296.92 -221.82)"/><path class="cls-2" d="M1105.9,1410.67a3.15,3.15,0,0,1-2.6-1.38L975.17,1218.16a3.13,3.13,0,0,1,.67-4.19l68-53.32a3.12,3.12,0,1,1,3.85,4.91L982,1217.09l126.52,188.72a3.11,3.11,0,0,1-.86,4.33A3.06,3.06,0,0,1,1105.9,1410.67Z" transform="translate(-296.92 -221.82)"/><path class="cls-2" d="M1093.29,1166.23H919.9a3.13,3.13,0,0,1-2.95-4.15l43.63-125.85a3.12,3.12,0,0,1,2.95-2.09h173.39a3.12,3.12,0,0,1,2.95,4.14l-43.63,125.85A3.13,3.13,0,0,1,1093.29,1166.23Zm-169-6.24h166.78l41.47-119.61H965.75Z" transform="translate(-296.92 -221.82)"/><path class="cls-2" d="M1158.48,1166.23H817.93a3.12,3.12,0,1,1,0-6.24h340.55a3.12,3.12,0,0,1,0,6.24Z" transform="translate(-296.92 -221.82)"/><circle class="cls-6" cx="1963.88" cy="410.53" r="96.52" transform="translate(-12 1287.09) rotate(-45)"/><path class="cls-3" d="M1953.83,483a3,3,0,0,1-.26-6,91.73,91.73,0,0,0,10-1.43,3,3,0,1,1,1.18,5.93,98.75,98.75,0,0,1-10.7,1.52Zm-20.93-.43-.39,0a100.87,100.87,0,0,1-10.63-2,3,3,0,1,1,1.42-5.87,93.19,93.19,0,0,0,10,1.83,3,3,0,0,1-.38,6Zm51.29-7.36a3,3,0,0,1-1.22-5.79,95,95,0,0,0,9.06-4.59,3,3,0,0,1,3,5.23,98.1,98.1,0,0,1-9.65,4.89A2.9,2.9,0,0,1,1984.19,475.23Zm-81.3-1.64a3,3,0,0,1-1.33-.3,101.47,101.47,0,0,1-9.44-5.28,3,3,0,0,1,3.24-5.11,91.5,91.5,0,0,0,8.86,5,3,3,0,0,1-1.33,5.73Zm107.54-15.49a3,3,0,0,1-2-5.25,97.42,97.42,0,0,0,7.12-7.25,3,3,0,1,1,4.53,4,98.49,98.49,0,0,1-7.57,7.72A3,3,0,0,1,2010.43,458.1Zm-133.06-2.67a3,3,0,0,1-2.13-.88,100.27,100.27,0,0,1-7.26-8,3,3,0,1,1,4.69-3.81,93.57,93.57,0,0,0,6.82,7.53,3,3,0,0,1-2.12,5.17Zm152.46-21.93a3,3,0,0,1-2.64-4.48,93.75,93.75,0,0,0,4.42-9.14,3,3,0,1,1,5.57,2.33,97.92,97.92,0,0,1-4.71,9.73A3,3,0,0,1,2029.83,433.5ZM1859,430.06a3,3,0,0,1-2.7-1.66,98.83,98.83,0,0,1-4.32-9.92,3,3,0,1,1,5.66-2.11,93.78,93.78,0,0,0,4.06,9.32,3,3,0,0,1-1.35,4.05A3,3,0,0,1,1859,430.06ZM2040.31,404a3.29,3.29,0,0,1-.54-.05,3,3,0,0,1-2.44-3.51,96.68,96.68,0,0,0,1.25-10.08,3,3,0,1,1,6,.42,98.85,98.85,0,0,1-1.32,10.73A3,3,0,0,1,2040.31,404Zm-190.63-3.85a3,3,0,0,1-3-2.61,99.39,99.39,0,0,1-.89-10.77,3,3,0,0,1,2.93-3.11h.09a3,3,0,0,1,3,2.94,92.65,92.65,0,0,0,.83,10.12,3,3,0,0,1-2.58,3.4Zm191.1-27.48a3,3,0,0,1-3-2.58,95.84,95.84,0,0,0-2-9.95,3,3,0,1,1,5.84-1.53,100.38,100.38,0,0,1,2.17,10.59,3,3,0,0,1-2.55,3.43A2.28,2.28,0,0,1,2040.78,372.65Zm-190.31-3.84a2.74,2.74,0,0,1-.56-.06,3,3,0,0,1-2.41-3.53,99.91,99.91,0,0,1,2.59-10.5,3,3,0,1,1,5.78,1.77,89.78,89.78,0,0,0-2.43,9.86A3,3,0,0,1,1850.47,368.81Zm180.74-26a3,3,0,0,1-2.69-1.64,96.06,96.06,0,0,0-5.13-8.77,3,3,0,0,1,5-3.33,99,99,0,0,1,5.46,9.34,3,3,0,0,1-1.3,4.07A3.14,3.14,0,0,1,2031.21,342.81Zm-170-3.42a3,3,0,0,1-1.49-.4,3,3,0,0,1-1.14-4.11,99.76,99.76,0,0,1,5.83-9.11,3,3,0,1,1,4.9,3.53,94.54,94.54,0,0,0-5.47,8.55A3,3,0,0,1,1861.24,339.39Zm151.31-21.76a3,3,0,0,1-2.1-.86,95.27,95.27,0,0,0-7.66-6.67,3,3,0,1,1,3.72-4.76,100.07,100.07,0,0,1,8.15,7.1,3,3,0,0,1-2.11,5.19ZM1880.89,315a3,3,0,0,1-2-5.27,97.92,97.92,0,0,1,8.43-6.77,3,3,0,0,1,3.52,4.91,96.65,96.65,0,0,0-7.92,6.36A3,3,0,0,1,1880.89,315Zm106-15.26a3,3,0,0,1-1.3-.3,95,95,0,0,0-9.39-3.87,3,3,0,0,1,2-5.7,100.05,100.05,0,0,1,10,4.12,3,3,0,0,1-1.31,5.75Zm-79.55-1.61a3,3,0,0,1-1.19-5.79,98.72,98.72,0,0,1,10.16-3.72,3,3,0,0,1,1.76,5.78,92.2,92.2,0,0,0-9.54,3.49A2.94,2.94,0,0,1,1907.3,298.11Zm49.46-7.09-.36,0c-2.73-.33-5.51-.53-8.28-.62a95.41,95.41,0,0,0-10.16.24,3,3,0,0,1-.46-6,99.48,99.48,0,0,1,10.8-.26c2.94.09,5.91.31,8.81.66a3,3,0,0,1-.35,6Z" transform="translate(-296.92 -221.82)"/><polygon class="cls-3" points="1692.55 160.97 1655.58 180.85 1618.6 200.74 1619.87 158.77 1621.13 116.81 1656.84 138.89 1692.55 160.97"/><path class="cls-4" d="M2037.77,1356.36c16.67,16.89,37.23,23.65,45.91,15.08s2.21-29.21-14.46-46.11c-11.54-11.69-29.09-14.42-38.81-15a6.71,6.71,0,0,0-7.12,7C2023.74,1327.08,2026.24,1344.66,2037.77,1356.36Z" transform="translate(-296.92 -221.82)"/><path class="cls-2" d="M2105.07,1409.2a2.5,2.5,0,0,1-2.49-2.33c0-.45-3-45.09-.44-104.86,2.38-55.2,10.14-135,33.55-201.62a2.5,2.5,0,0,1,4.72,1.66c-44.44,126.49-33,302.71-32.84,304.47a2.51,2.51,0,0,1-2.33,2.67Z" transform="translate(-296.92 -221.82)"/><path class="cls-2" d="M2088.28,1409.2h0a2.5,2.5,0,0,1-2.47-2.53c1-81.94-21.89-131.17-39.19-161.08a2.5,2.5,0,0,1,4.32-2.5c17.6,30.42,40.88,80.47,39.87,163.64A2.5,2.5,0,0,1,2088.28,1409.2Z" transform="translate(-296.92 -221.82)"/><path class="cls-4" d="M2137.58,1152.6c-3.27,14-11.74,24-18.93,22.28s-10.36-14.37-7.1-28.35c2.26-9.68,10.45-16.63,15.29-20a4.06,4.06,0,0,1,5.89,1.38C2135.57,1133.07,2139.83,1142.93,2137.58,1152.6Z" transform="translate(-296.92 -221.82)"/><path class="cls-3" d="M2188.51,1112.63c3.5-6.49.48-13.18-6.71-14.86h0c-7.18-1.68-15.92,2.27-19.42,8.76l-23.83,44.26a14.54,14.54,0,0,1-16.11,7.27h0a14.53,14.53,0,0,1-11.22-13.65l-1.77-50.23c-.26-7.38-6.36-14.78-13.54-16.46h0a13,13,0,0,0-12.49,13.4s2.24,66.34,2.39,67.66l.07.62a27.1,27.1,0,0,0,20.7,22.78l19.36,4.52a27.11,27.11,0,0,0,28.65-11.27l.08,0Z" transform="translate(-296.92 -221.82)"/><path class="cls-5" d="M2028.24,1202.36h0l15.4-30a11.53,11.53,0,0,0-8.6-16.68h0a11.54,11.54,0,0,0-13,13.54Z" transform="translate(-296.92 -221.82)"/><path class="cls-5" d="M2015,1212.22h0l-33.15,6.21a11.53,11.53,0,0,1-13.54-13h0a11.53,11.53,0,0,1,16.68-8.6Z" transform="translate(-296.92 -221.82)"/><path class="cls-5" d="M2024.45,1224.89h0l-15.4,30a11.54,11.54,0,0,0,8.61,16.68h0a11.54,11.54,0,0,0,13-13.54Z" transform="translate(-296.92 -221.82)"/><path class="cls-5" d="M2037.68,1215h0l33.15-6.21a11.53,11.53,0,0,1,13.54,13h0a11.53,11.53,0,0,1-16.68,8.6Z" transform="translate(-296.92 -221.82)"/><path class="cls-5" d="M2019.72,1204.32h0l-10.33-32.1a11.53,11.53,0,0,0-17.88-5.72h0a11.54,11.54,0,0,0,.38,18.77Z" transform="translate(-296.92 -221.82)"/><path class="cls-5" d="M2017.34,1220.65h0l-19,27.83a11.54,11.54,0,0,1-18.77.38h0a11.54,11.54,0,0,1,5.71-17.88Z" transform="translate(-296.92 -221.82)"/><path class="cls-5" d="M2033,1222.93h0l10.32,32.1a11.53,11.53,0,0,0,17.88,5.72h0a11.54,11.54,0,0,0-.38-18.77Z" transform="translate(-296.92 -221.82)"/><path class="cls-5" d="M2035.35,1206.6h0l19.06-27.83a11.53,11.53,0,0,1,18.76-.38h0a11.54,11.54,0,0,1-5.71,17.88Z" transform="translate(-296.92 -221.82)"/></svg>